<?xml version="1.0" encoding="UTF-8" standalone="no"?>
<svg
   xmlns:dc="http://purl.org/dc/elements/1.1/"
   xmlns:cc="http://creativecommons.org/ns#"
   xmlns:rdf="http://www.w3.org/1999/02/22-rdf-syntax-ns#"
   xmlns:svg="http://www.w3.org/2000/svg"
   xmlns="http://www.w3.org/2000/svg"
   xmlns:sodipodi="http://sodipodi.sourceforge.net/DTD/sodipodi-0.dtd"
   xmlns:inkscape="http://www.inkscape.org/namespaces/inkscape"
   width="300"
   height="180"
   viewBox="0 0 700 420"
   version="1.0"
   id="svg2"
   sodipodi:version="0.32"
   inkscape:version="0.46"
   sodipodi:docname="American_Cancer_Society_Logo.svg"
   inkscape:output_extension="org.inkscape.output.svg.inkscape">
  <metadata
     id="metadata94">
    <rdf:RDF>
      <cc:Work
         rdf:about="">
        <dc:format>image/svg+xml</dc:format>
        <dc:type
           rdf:resource="http://purl.org/dc/dcmitype/StillImage" />
      </cc:Work>
    </rdf:RDF>
  </metadata>
  <defs
     id="defs92">
    <inkscape:perspective
       sodipodi:type="inkscape:persp3d"
       inkscape:vp_x="0 : 262.5 : 1"
       inkscape:vp_y="0 : 1000 : 0"
       inkscape:vp_z="875 : 262.5 : 1"
       inkscape:persp3d-origin="437.5 : 175 : 1"
       id="perspective96" />
  </defs>
  <sodipodi:namedview
     inkscape:window-height="669"
     inkscape:window-width="640"
     inkscape:pageshadow="2"
     inkscape:pageopacity="0.0"
     guidetolerance="10.0"
     gridtolerance="10.0"
     objecttolerance="10.0"
     borderopacity="1.0"
     bordercolor="#666666"
     pagecolor="#ffffff"
     id="base"
     showgrid="false"
     inkscape:zoom="0.62171429"
     inkscape:cx="437.5"
     inkscape:cy="262.5"
     inkscape:window-x="23"
     inkscape:window-y="23"
     inkscape:current-layer="svg2" />
  <g
     id="#c61f3dff">
    <path
       d="M 0,0 L 141.12,0 C 141.11,140 141.13,280 141.12,420 L 0,420 L 0,0 M 72.04,41.12 C 70.23,45.56 68.51,50.04 66.69,54.47 C 65.46,57.54 63.82,60.58 63.88,63.98 C 63.84,126.65 63.9,189.33 63.84,252 C 63.94,253.32 63.68,255.04 65.05,255.82 C 67.33,257.64 69.58,259.53 72.08,261.05 C 75.01,259.35 77.78,257.31 80.27,255.01 C 80.53,252.35 80.38,249.67 80.41,247.01 C 80.38,186.01 80.38,125.02 80.4,64.03 C 80.5,61.66 79.77,59.38 78.8,57.25 C 76.44,51.92 74.36,46.47 72.04,41.12 M 27.59,228.6 C 22.25,235.9 21.73,247.69 29.18,253.79 C 37.97,260.62 46.68,267.55 55.51,274.32 C 59.63,270.94 63.97,267.84 68.05,264.42 C 59.31,256.94 49.97,250.18 41.06,242.91 C 38.81,241.72 40.72,237.66 43,238.58 C 48.2,240.02 53.58,242.5 58.99,240.31 C 56.96,237.15 54.84,234.05 52.55,231.08 C 54.47,228.23 56.29,225.32 58.13,222.42 C 52.43,222.2 46.72,222.25 41.02,222.29 C 35.93,222.36 30.62,224.34 27.59,228.6 M 85.98,222.33 C 88.08,225.12 89.92,228.08 91.66,231.11 C 89.39,234.06 87.33,237.16 85.23,240.24 C 91.13,242.77 96.74,239.1 102.48,238.12 C 102.93,239.52 104.76,241.64 102.82,242.69 C 84.79,257.07 66.57,271.21 48.53,285.58 C 46.86,287.12 44.45,288.45 44.31,290.99 C 43.14,295.66 47.17,300.69 51.96,300.57 C 55.83,300.7 58.55,297.59 61.41,295.48 C 78.93,281.63 96.56,267.93 114.11,254.11 C 123.78,246.71 121.4,229.67 110.99,224.1 C 103.13,220.7 94.28,222.57 85.98,222.33 M 88.56,279.66 C 77.39,287.69 66.96,296.76 56.07,305.19 C 52.82,308.06 48.17,310.99 48.74,315.99 C 48.5,322.61 57.69,324.78 62.06,321.05 C 73.19,312.58 83.99,303.69 94.93,294.99 C 97.92,292.44 101.65,289.4 100.73,284.95 C 100.56,279.08 93.04,276.81 88.56,279.66 M 77.41,314.37 C 70.11,320.08 62.57,325.52 55.47,331.49 C 51.42,334.59 52.39,341.01 56.18,343.86 C 59.32,345.07 63.28,345.38 66.12,343.27 C 70.98,339.78 75.65,336.03 80.44,332.45 C 85.07,328.77 90.13,325.51 94,320.98 C 96.03,318.46 95.4,315.04 94.6,312.18 C 92.89,310.92 91.27,309.15 88.97,309.2 C 84.4,308.57 80.78,311.81 77.41,314.37 M 63.9,350.04 C 64.48,355.35 61.91,362.3 66.85,366.12 C 70.12,369.22 75.17,369.39 79.29,368.24 C 86.35,364.74 86.5,353.96 80.42,349.41 C 80.37,345.63 80.4,341.85 80.3,338.07 C 74.85,342.09 69.58,346.34 63.9,350.04 z"
       id="path5"
       style="opacity:1;fill:#c61f3d" />
  </g>
  <g
     id="#0237a9ff">
    <path
       d="M 141.12,0 L 700,0 L 700,1.32 C 686.05,42.08 672.8,83.08 659.09,123.92 C 626.32,222.63 593.6,321.34 560.71,420 L 141.12,420 C 141.13,280 141.11,140 141.12,0 M 421.52,101.46 C 421.52,105.25 421.51,109.04 421.55,112.84 C 426.87,112.89 432.19,112.94 437.5,112.8 C 437.49,109.02 437.49,105.23 437.51,101.45 C 432.18,101.41 426.85,101.41 421.52,101.46 M 176.01,165.64 C 181.54,165.69 187.07,165.64 192.61,165.66 C 194.36,161.35 195.79,156.92 197.54,152.61 C 205.03,152.76 212.52,152.7 220.01,152.64 C 221.49,156.98 223.21,161.23 224.45,165.65 C 230.51,165.57 236.57,165.82 242.62,165.49 C 234.53,145.36 227.03,125 218.99,104.86 C 212.47,104.53 205.93,104.99 199.41,104.65 C 191.26,124.84 183.81,145.31 176.01,165.64 M 261.66,128.1 C 261.58,125.44 261.51,122.77 261.49,120.1 C 256.69,120.15 251.89,120.17 247.1,120.09 C 247.18,135.28 247.09,150.46 247.14,165.65 C 252.37,165.66 257.59,165.63 262.82,165.66 C 262.9,158.74 262.7,151.82 262.87,144.91 C 263.24,141.02 263.56,136.43 267.01,133.92 C 268.88,132.14 271.77,132.07 274.11,132.8 C 277.02,134.45 277.72,138.02 277.78,141.1 C 277.93,149.28 277.8,157.46 277.83,165.64 C 283.07,165.66 288.3,165.68 293.54,165.6 C 293.53,158.81 293.46,152.01 293.55,145.22 C 293.81,141.77 294.32,138.1 296.36,135.21 C 298.62,132.04 304.04,131.09 306.61,134.38 C 308.6,136.38 308.46,139.38 308.51,141.99 C 308.49,149.85 308.5,157.71 308.49,165.57 C 313.8,165.68 319.12,165.69 324.43,165.6 C 324.27,155.36 324.53,145.12 324.28,134.89 C 324.06,129.35 322.16,122.83 316.53,120.57 C 309.99,118.14 302.33,118.88 296.45,122.66 C 295.11,124.15 293.77,125.63 292.49,127.16 C 290.47,124.66 288.51,121.87 285.42,120.63 C 277.11,117.24 265.95,119.65 261.66,128.1 M 340.04,122.99 C 326.38,131.25 326.62,154.53 340.46,162.5 C 348.62,167.57 358.93,167.4 368.01,165.36 C 369.72,164.75 371.94,164.73 373.13,163.17 C 373.35,159.61 373.16,156.05 373.09,152.49 C 367.07,155.71 359.92,156.9 353.23,155.37 C 349.5,154.53 346.29,151.34 346.08,147.42 C 356.52,147.46 366.96,147.45 377.4,147.42 C 377.44,140.87 376.58,134.18 373.43,128.35 C 370.53,124.93 367.26,121.47 362.74,120.37 C 355.27,118.36 346.68,118.71 340.04,122.99 M 406.22,119.99 C 402.38,121.37 400,124.89 397.88,128.16 C 397.78,125.48 397.82,122.8 397.83,120.13 C 393.06,120.14 388.28,120.15 383.51,120.13 C 383.58,135.29 383.45,150.46 383.57,165.63 C 388.85,165.67 394.14,165.69 399.43,165.59 C 399.3,158.78 399.23,151.97 399.42,145.17 C 399.65,140.94 400.86,135.98 404.93,133.86 C 408.26,131.68 412.38,132.52 416.11,132.63 C 416.27,128.24 416.64,123.86 416.7,119.47 C 413.21,119.33 409.59,118.88 406.22,119.99 M 448.18,126.2 C 438.45,135.49 439.32,153.69 450.47,161.51 C 459.16,167.76 470.79,167.68 480.69,164.72 C 480.66,160.86 480.53,156.99 480.49,153.13 C 474.73,154.82 467.75,156.46 462.58,152.38 C 456.13,147.95 456.46,137.18 462.89,132.88 C 467.83,129.3 474.31,130.99 479.52,133.04 C 479.68,129.18 480.21,125.35 480.43,121.5 C 469.95,117.52 456.69,118.29 448.18,126.2 M 490.41,122.24 C 490.41,125.83 490.49,129.42 490.56,133.01 C 496.98,130.35 504.4,128.36 511.22,130.73 C 513.96,131.79 515.08,134.67 515.66,137.32 C 509.2,136.28 502.55,136.53 496.22,138.2 C 492.75,139.28 489.22,141.01 487.12,144.1 C 483.4,149.46 483.84,157.61 488.61,162.21 C 493.76,166.67 501.36,167.73 507.75,165.73 C 511.42,164.67 513.68,161.42 516.22,158.82 C 516.29,161.09 516.39,163.36 516.5,165.62 C 521.29,165.66 526.08,165.68 530.87,165.62 C 529.68,156.11 530.47,146.5 530.18,136.95 C 529.99,132.03 528.26,126.86 524.22,123.79 C 519.17,119.63 512.32,118.99 506.03,119.27 C 500.68,119.25 495.43,120.44 490.41,122.24 M 563.73,119.8 C 559.11,120.6 555.9,124.15 552.79,127.34 C 552.75,124.95 552.78,122.55 552.82,120.16 C 548.01,120.13 543.2,120.12 538.4,120.12 C 538.41,135.29 538.41,150.46 538.39,165.62 C 543.7,165.67 549.01,165.71 554.32,165.57 C 554.24,159.36 554.27,153.16 554.25,146.96 C 554.24,143.12 554.54,139.04 556.65,135.72 C 559.77,131.16 568.26,130.89 570.07,136.81 C 571.93,146.3 570.43,156.04 571.01,165.62 C 576.24,165.64 581.47,165.68 586.7,165.64 C 586.77,155.75 586.8,145.85 586.72,135.97 C 586.71,130.43 584.2,124.68 579.37,121.72 C 574.8,118.64 568.92,118.93 563.73,119.8 M 421.54,120.09 C 421.5,135.26 421.54,150.44 421.53,165.61 C 426.86,165.67 432.2,165.69 437.54,165.6 C 437.45,150.44 437.52,135.28 437.49,120.11 C 432.17,120.14 426.86,120.18 421.54,120.09 M 196.58,180.66 C 189.55,183.08 183.24,188.15 180.15,195 C 176.83,201.99 176.62,210.08 177.91,217.59 C 179.51,226.25 185.76,233.6 193.73,237.17 C 205.03,242.4 218.14,241.62 229.94,238.62 C 229.81,234.39 229.64,230.15 229.4,225.92 C 224.34,227.19 219.32,229.05 214.01,228.71 C 206.67,229.03 198.77,225.36 195.74,218.39 C 192.99,211.75 193.49,203.55 197.7,197.61 C 200.28,193.86 204.53,191.53 208.94,190.66 C 215.66,189.72 222.74,191.08 228.5,194.71 C 229.3,190.29 229.87,185.8 229.73,181.31 C 219.13,177.74 207.26,176.85 196.58,180.66 M 239.89,196.53 C 239.84,200.08 239.85,203.63 239.92,207.17 C 246.1,204.87 252.82,203.31 259.4,204.72 C 262.57,205.5 264.62,208.32 264.94,211.49 C 256.63,211.2 247.56,210.41 240.18,215.02 C 232.67,219.56 231.91,231.82 238.85,237.2 C 242.97,240.66 248.76,241.23 253.94,240.79 C 258.89,240.36 263.19,236.99 265.41,232.63 C 265.54,235.05 265.67,237.47 265.76,239.89 C 270.61,239.95 275.46,239.91 280.31,239.92 C 278.79,229.62 280.09,219.18 279.37,208.83 C 278.7,201.96 273.27,196.23 266.64,194.63 C 257.83,192.46 248.41,193.59 239.89,196.53 M 301.67,202.77 C 301.67,200.01 301.67,197.26 301.67,194.51 C 296.92,194.51 292.17,194.53 287.42,194.51 C 287.27,209.64 287.41,224.77 287.37,239.91 C 292.68,239.86 297.98,240.15 303.29,240.13 C 303.41,232.76 303.24,225.39 303.36,218.02 C 303.52,215.18 303.98,212.13 305.87,209.88 C 308.5,206.46 314.15,205.48 317.46,208.5 C 319.63,211.12 319.89,214.69 319.88,217.96 C 319.87,225.27 319.88,232.57 319.86,239.88 C 325.18,239.94 330.49,239.93 335.81,239.92 C 335.78,230.36 335.9,220.8 335.76,211.24 C 335.71,205.3 333.34,198.89 327.96,195.82 C 319.21,191.12 306.36,193.41 301.67,202.77 M 349.48,199.48 C 338.29,208.39 338.9,228.12 350.84,236.12 C 359.5,242.23 370.83,241.57 380.68,239.29 C 380.68,235.31 380.59,231.33 380.46,227.35 C 374.73,229.48 367.6,230.76 362.44,226.61 C 355.31,221.7 356.93,209.01 365.07,206.03 C 369.76,204.39 375.2,205.15 379.38,207.83 C 379.63,203.81 380.18,199.82 380.47,195.8 C 370.44,192.14 358.02,192.49 349.48,199.48 M 388.82,203.72 C 385.11,209.4 384.77,216.59 385.85,223.11 C 387.58,231.55 394.84,238.1 403.11,239.96 C 411.45,241.86 420.28,240.96 428.35,238.28 C 428.35,234.54 428.34,230.81 428.36,227.07 C 422.11,229.86 415.04,231.36 408.28,229.74 C 404.62,228.79 401.49,225.55 401.3,221.68 C 411.74,221.74 422.18,221.77 432.62,221.66 C 432.56,214.05 431.88,205.57 426.2,199.87 C 421.71,194.78 414.54,193.16 408,193.58 C 400.55,193.75 392.8,197.2 388.82,203.72 M 458.71,195.77 C 456.11,197.34 454.56,200.07 453.62,202.87 C 453.21,200.1 453.15,197.31 453.19,194.52 C 448.36,194.51 443.53,194.5 438.71,194.55 C 438.77,209.69 438.75,224.82 438.73,239.96 C 444.01,240.18 449.29,240.14 454.57,239.94 C 454.59,233.3 454.5,226.66 454.61,220.02 C 454.74,215.8 455.88,211.07 459.58,208.56 C 463.03,206.11 467.45,206.72 471.42,206.88 C 471.53,202.51 471.88,198.15 471.89,193.78 C 467.46,193.53 462.54,193.02 458.71,195.77 M 328.5,250.22 C 328.64,254.03 328.63,257.83 328.54,261.64 C 333.81,261.7 339.09,261.67 344.37,261.67 C 344.41,257.86 344.41,254.04 344.38,250.23 C 339.09,250.14 333.79,250.17 328.5,250.22 M 190.48,254.46 C 184.61,256.28 179.06,260.85 177.93,267.16 C 176.86,272.86 177.82,279.62 182.52,283.54 C 188.58,288.96 197.41,288.84 204.07,293.12 C 206.84,294.96 206.52,298.56 205.18,301.18 C 197,305.12 187.43,302.77 179.54,299.25 C 179.08,303.85 178.31,308.45 178.47,313.09 C 189.82,315.52 202.26,317.06 213.18,312.15 C 224.73,307.26 226.91,288.77 216.44,281.65 C 210.44,277.37 202.48,277.61 196.38,273.63 C 193.13,271.79 194.23,266.87 197.55,265.78 C 204.42,263.66 212.06,264.74 218.61,267.51 C 219.31,263.24 219.56,258.91 219.68,254.59 C 210.18,252.16 199.95,251.54 190.48,254.46 M 408.68,258.84 C 408.73,262.15 408.75,265.47 408.7,268.79 C 405.72,268.85 402.74,268.86 399.77,268.84 C 399.64,272.62 399.6,276.4 399.7,280.18 C 402.66,280.19 405.61,280.18 408.58,280.15 C 408.51,287.1 408.46,294.06 408.61,301.01 C 408.82,305.63 410.39,311.06 414.96,313.14 C 421.4,316.45 428.96,315.39 435.86,314.47 C 435.66,311.08 435.51,307.68 435.36,304.28 C 432.57,304.43 429.63,305.05 426.93,304.04 C 425.27,302.84 424.47,300.77 424.44,298.78 C 424.16,292.58 424.38,286.38 424.32,280.19 C 427.98,280.16 431.66,280.16 435.33,280.13 C 435.35,276.36 435.35,272.59 435.35,268.82 C 431.64,268.83 427.93,268.83 424.23,268.83 C 424.36,263.9 424.35,258.98 424.26,254.06 C 419.03,255.54 413.86,257.23 408.68,258.84 M 500.09,267.91 C 494.3,274.03 495.34,285.06 502.35,289.82 C 507.26,293.71 514.34,293.44 519.59,290.37 C 526.39,285.77 528.37,275.5 523.23,268.98 C 518.15,261.47 505.89,261.06 500.09,267.91 M 355.25,277.14 C 351.05,282.66 350.77,290 351.55,296.62 C 352.94,305.33 360.34,312.28 368.76,314.28 C 377.17,316.27 386.25,315.58 394.27,312.36 C 394.19,308.82 394.21,305.27 394.29,301.73 C 387.63,304.15 380.25,305.88 373.27,303.77 C 369.81,302.79 367.66,299.6 367.1,296.18 C 377.5,296.16 387.9,296.21 398.3,296.21 C 398.61,289.38 397.82,282.07 393.83,276.31 C 390.28,270.81 383.57,268.33 377.3,267.87 C 369.13,267.48 360.08,270.12 355.25,277.14 M 248.31,268.17 C 239.06,268.99 229.77,274.85 227.24,284.16 C 225.33,291.7 225.97,300.64 231.37,306.67 C 235.53,311.66 241.85,314.31 248.18,315.13 C 255.95,315.98 264.33,314.66 270.66,309.81 C 281.47,301.55 282,283.24 271.71,274.36 C 265.46,268.74 256.43,267.25 248.31,268.17 M 291.14,273.13 C 279.51,281.59 279.37,301.41 290.99,309.94 C 299.68,316.53 311.54,316.32 321.6,313.44 C 321.54,309.45 321.49,305.46 321.25,301.48 C 315.43,304.31 307.73,304.97 302.56,300.46 C 296.57,295.37 297.89,284.4 304.87,280.84 C 309.79,278.47 315.49,279.69 320.25,281.88 C 320.43,278.21 321.04,274.59 321.24,270.93 C 320.76,269.6 319.12,269.58 318.01,269.13 C 309.05,266.7 298.84,267.72 291.14,273.13 M 328.54,268.88 C 328.68,284.05 328.68,299.23 328.53,314.4 C 333.79,314.44 339.06,314.38 344.33,314.41 C 344.45,299.21 344.46,284 344.33,268.8 C 339.07,268.87 333.8,268.79 328.54,268.88 M 439.32,268.82 C 445.24,284.02 451.29,299.19 457.33,314.35 C 457.97,316.25 456.42,318.01 455.35,319.43 C 452.1,322.3 447.44,321.51 443.62,320.46 C 443.3,324.49 442.85,328.5 442.48,332.53 C 449.4,333.81 457.36,334.68 463.45,330.39 C 469.96,325.55 472.08,317.29 475.1,310.17 C 480.3,296.33 486.26,282.77 491.09,268.8 C 486.4,268.88 481.71,268.76 477.02,268.85 C 475.31,268.43 474.98,270.35 474.57,271.49 C 471.75,280.46 469.05,289.47 466.01,298.38 C 462.84,288.49 459.72,278.59 456.23,268.82 C 450.59,268.88 444.96,268.83 439.32,268.82 z"
       id="path8"
       style="opacity:1;fill:#0237a9" />
    <path
       d="M 201.36,141.15 C 203.61,133.17 206.59,125.42 209,117.49 C 211.33,125.37 213.83,133.19 216.12,141.09 C 211.2,141.1 206.28,141.09 201.36,141.15 z"
       id="path10"
       style="opacity:1;fill:#0237a9" />
    <path
       d="M 349.51,130.69 C 353.34,128.28 359.59,128.82 361.77,133.21 C 362.51,134.81 363.55,136.78 362.68,138.52 C 356.96,138.7 351.22,138.62 345.5,138.47 C 346.35,135.7 347.03,132.51 349.51,130.69 z"
       id="path12"
       style="opacity:1;fill:#0237a9" />
    <path
       d="M 501.74,146.6 C 506.2,145.02 510.97,145.28 515.61,145.58 C 514.98,149.24 513.56,153.26 509.97,154.98 C 506.65,156.91 501.96,156.24 499.71,152.99 C 498.84,150.53 500.29,148.43 501.74,146.6 z"
       id="path14"
       style="opacity:1;fill:#0237a9" />
    <path
       d="M 403.41,206.49 C 406.06,202.99 411.45,202.81 414.98,205.03 C 417.26,206.75 417.99,209.71 418.47,212.37 C 417.24,213.53 415.47,212.99 413.98,213.12 C 409.68,213.05 405.38,213.2 401.09,212.93 C 401.45,210.67 401.74,208.21 403.41,206.49 z"
       id="path16"
       style="opacity:1;fill:#0237a9" />
    <path
       d="M 250.63,221.73 C 254.68,218.72 260.07,219.86 264.77,219.73 C 264.86,225.06 260.64,230.69 254.97,230.38 C 252.86,230.59 251.17,229.19 249.42,228.28 C 248.99,226.08 248.46,223.23 250.63,221.73 z"
       id="path18"
       style="opacity:1;fill:#0237a9" />
    <path
       d="M 507.23,267.23 C 509.4,266.14 511.88,266.52 514.22,266.55 C 517.94,268.37 521.4,271.64 521.56,276.05 C 522.33,280.9 520.06,286.49 515.32,288.4 C 510.87,290.47 504.93,288.76 502.56,284.36 C 498.69,278.82 500.93,269.91 507.23,267.23 M 505.2,269.52 C 505.23,274.95 504.95,280.39 505.33,285.8 C 506.16,285.96 507.83,286.27 508.67,286.43 C 508.88,283.71 508.26,280.75 509.74,278.31 C 511.4,280.77 512.85,283.36 514.31,285.94 C 515.25,286.02 517.11,286.18 518.05,286.26 C 516.93,283.76 515.52,281.42 514.03,279.14 C 515.29,278.4 517.25,278.2 517.75,276.61 C 518.88,274.71 517.84,272.63 517.26,270.76 C 513.47,269 509.24,269.5 505.2,269.52 z"
       id="path20"
       style="opacity:1;fill:#0237a9" />
    <path
       d="M 508.54,272.42 C 510.34,272.45 512.23,272.16 513.96,272.86 C 514.25,273.71 514.53,274.57 514.79,275.45 C 512.93,275.95 511.05,276.31 509.15,276.57 C 508.92,275.19 508.71,273.8 508.54,272.42 z"
       id="path22"
       style="opacity:1;fill:#0237a9" />
    <path
       d="M 368.97,280.99 C 372.1,277.08 378.97,276.9 382.18,280.8 C 383.7,282.63 383.82,285.1 384.31,287.33 C 378.55,287.36 372.79,287.26 367.03,287.41 C 367.37,285.2 367.59,282.83 368.97,280.99 z"
       id="path24"
       style="opacity:1;fill:#0237a9" />
    <path
       d="M 245.54,281.62 C 250.01,277.71 258.35,278.19 261.01,283.96 C 263.34,289.1 263.45,295.67 260.24,300.48 C 256.91,305.72 248.01,305.49 244.77,300.26 C 241.34,294.57 241.99,287.1 245.54,281.62 z"
       id="path26"
       style="opacity:1;fill:#0237a9" />
  </g>
  <g
     id="#fffffeff">
    <path
       d="M 72.04,41.12 C 74.36,46.47 76.44,51.92 78.8,57.25 C 79.77,59.38 80.5,61.66 80.4,64.03 C 80.38,125.02 80.38,186.01 80.41,247.01 C 80.38,249.67 80.53,252.35 80.27,255.01 C 77.78,257.31 75.01,259.35 72.08,261.05 C 69.58,259.53 67.33,257.64 65.05,255.82 C 63.68,255.04 63.94,253.32 63.84,252 C 63.9,189.33 63.84,126.65 63.88,63.98 C 63.82,60.58 65.46,57.54 66.69,54.47 C 68.51,50.04 70.23,45.56 72.04,41.12 z"
       id="path29"
       style="opacity:1;fill:#fffffe" />
    <path
       d="M 421.52,101.46 C 426.85,101.41 432.18,101.41 437.51,101.45 C 437.49,105.23 437.49,109.02 437.5,112.8 C 432.19,112.94 426.87,112.89 421.55,112.84 C 421.51,109.04 421.52,105.25 421.52,101.46 z"
       id="path31"
       style="opacity:1;fill:#fffffe" />
    <path
       d="M 176.01,165.64 C 183.81,145.31 191.26,124.84 199.41,104.65 C 205.93,104.99 212.47,104.53 218.99,104.86 C 227.03,125 234.53,145.36 242.62,165.49 C 236.57,165.82 230.51,165.57 224.45,165.65 C 223.21,161.23 221.49,156.98 220.01,152.64 C 212.52,152.7 205.03,152.76 197.54,152.61 C 195.79,156.92 194.36,161.35 192.61,165.66 C 187.07,165.64 181.54,165.69 176.01,165.64 M 201.36,141.15 C 206.28,141.09 211.2,141.1 216.12,141.09 C 213.83,133.19 211.33,125.37 209,117.49 C 206.59,125.42 203.61,133.17 201.36,141.15 z"
       id="path33"
       style="opacity:1;fill:#fffffe" />
    <path
       d="M 261.66,128.1 C 265.95,119.65 277.11,117.24 285.42,120.63 C 288.51,121.87 290.47,124.66 292.49,127.16 C 293.77,125.63 295.11,124.15 296.45,122.66 C 302.33,118.88 309.99,118.14 316.53,120.57 C 322.16,122.83 324.06,129.35 324.28,134.89 C 324.53,145.12 324.27,155.36 324.43,165.6 C 319.12,165.69 313.8,165.68 308.49,165.57 C 308.5,157.71 308.49,149.85 308.51,141.99 C 308.46,139.38 308.6,136.38 306.61,134.38 C 304.04,131.09 298.62,132.04 296.36,135.21 C 294.32,138.1 293.81,141.77 293.55,145.22 C 293.46,152.01 293.53,158.81 293.54,165.6 C 288.3,165.68 283.07,165.66 277.83,165.64 C 277.8,157.46 277.93,149.28 277.78,141.1 C 277.72,138.02 277.02,134.45 274.11,132.8 C 271.77,132.07 268.88,132.14 267.01,133.92 C 263.56,136.43 263.24,141.02 262.87,144.91 C 262.7,151.82 262.9,158.74 262.82,165.66 C 257.59,165.63 252.37,165.66 247.14,165.65 C 247.09,150.46 247.18,135.28 247.1,120.09 C 251.89,120.17 256.69,120.15 261.49,120.1 C 261.51,122.77 261.58,125.44 261.66,128.1 z"
       id="path35"
       style="opacity:1;fill:#fffffe" />
    <path
       d="M 340.04,122.99 C 346.68,118.71 355.27,118.36 362.74,120.37 C 367.26,121.47 370.53,124.93 373.43,128.35 C 376.58,134.18 377.44,140.87 377.4,147.42 C 366.96,147.45 356.52,147.46 346.08,147.42 C 346.29,151.34 349.5,154.53 353.23,155.37 C 359.92,156.9 367.07,155.71 373.09,152.49 C 373.16,156.05 373.35,159.61 373.13,163.17 C 371.94,164.73 369.72,164.75 368.01,165.36 C 358.93,167.4 348.62,167.57 340.46,162.5 C 326.62,154.53 326.38,131.25 340.04,122.99 M 349.51,130.69 C 347.03,132.51 346.35,135.7 345.5,138.47 C 351.22,138.62 356.96,138.7 362.68,138.52 C 363.55,136.78 362.51,134.81 361.77,133.21 C 359.59,128.82 353.34,128.28 349.51,130.69 z"
       id="path37"
       style="opacity:1;fill:#fffffe" />
    <path
       d="M 406.22,119.99 C 409.59,118.88 413.21,119.33 416.7,119.47 C 416.64,123.86 416.27,128.24 416.11,132.63 C 412.38,132.52 408.26,131.68 404.93,133.86 C 400.86,135.98 399.65,140.94 399.42,145.17 C 399.23,151.97 399.3,158.78 399.43,165.59 C 394.14,165.69 388.85,165.67 383.57,165.63 C 383.45,150.46 383.58,135.29 383.51,120.13 C 388.28,120.15 393.06,120.14 397.83,120.13 C 397.82,122.8 397.78,125.48 397.88,128.16 C 400,124.89 402.38,121.37 406.22,119.99 z"
       id="path39"
       style="opacity:1;fill:#fffffe" />
    <path
       d="M 448.18,126.2 C 456.69,118.29 469.95,117.52 480.43,121.5 C 480.21,125.35 479.68,129.18 479.52,133.04 C 474.31,130.99 467.83,129.3 462.89,132.88 C 456.46,137.18 456.13,147.95 462.58,152.38 C 467.75,156.46 474.73,154.82 480.49,153.13 C 480.53,156.99 480.66,160.86 480.69,164.72 C 470.79,167.68 459.16,167.76 450.47,161.51 C 439.32,153.69 438.45,135.49 448.18,126.2 z"
       id="path41"
       style="opacity:1;fill:#fffffe" />
    <path
       d="M 490.41,122.24 C 495.43,120.44 500.68,119.25 506.03,119.27 C 512.32,118.99 519.17,119.63 524.22,123.79 C 528.26,126.86 529.99,132.03 530.18,136.95 C 530.47,146.5 529.68,156.11 530.87,165.62 C 526.08,165.68 521.29,165.66 516.5,165.62 C 516.39,163.36 516.29,161.09 516.22,158.82 C 513.68,161.42 511.42,164.67 507.75,165.73 C 501.36,167.73 493.76,166.67 488.61,162.21 C 483.84,157.61 483.4,149.46 487.12,144.1 C 489.22,141.01 492.75,139.28 496.22,138.2 C 502.55,136.53 509.2,136.28 515.66,137.32 C 515.08,134.67 513.96,131.79 511.22,130.73 C 504.4,128.36 496.98,130.35 490.56,133.01 C 490.49,129.42 490.41,125.83 490.41,122.24 M 501.74,146.6 C 500.29,148.43 498.84,150.53 499.71,152.99 C 501.96,156.24 506.65,156.91 509.97,154.98 C 513.56,153.26 514.98,149.24 515.61,145.58 C 510.97,145.28 506.2,145.02 501.74,146.6 z"
       id="path43"
       style="opacity:1;fill:#fffffe" />
    <path
       d="M 563.73,119.8 C 568.92,118.93 574.8,118.64 579.37,121.72 C 584.2,124.68 586.71,130.43 586.72,135.97 C 586.8,145.85 586.77,155.75 586.7,165.64 C 581.47,165.68 576.24,165.64 571.01,165.62 C 570.43,156.04 571.93,146.3 570.07,136.81 C 568.26,130.89 559.77,131.16 556.65,135.72 C 554.54,139.04 554.24,143.12 554.25,146.96 C 554.27,153.16 554.24,159.36 554.32,165.57 C 549.01,165.71 543.7,165.67 538.39,165.62 C 538.41,150.46 538.41,135.29 538.4,120.12 C 543.2,120.12 548.01,120.13 552.82,120.16 C 552.78,122.55 552.75,124.95 552.79,127.34 C 555.9,124.15 559.11,120.6 563.73,119.8 z"
       id="path45"
       style="opacity:1;fill:#fffffe" />
    <path
       d="M 421.54,120.09 C 426.86,120.18 432.17,120.14 437.49,120.11 C 437.52,135.28 437.45,150.44 437.54,165.6 C 432.2,165.69 426.86,165.67 421.53,165.61 C 421.54,150.44 421.5,135.26 421.54,120.09 z"
       id="path47"
       style="opacity:1;fill:#fffffe" />
    <path
       d="M 196.58,180.66 C 207.26,176.85 219.13,177.74 229.73,181.31 C 229.87,185.8 229.3,190.29 228.5,194.71 C 222.74,191.08 215.66,189.72 208.94,190.66 C 204.53,191.53 200.28,193.86 197.7,197.61 C 193.49,203.55 192.99,211.75 195.74,218.39 C 198.77,225.36 206.67,229.03 214.01,228.71 C 219.32,229.05 224.34,227.19 229.4,225.92 C 229.64,230.15 229.81,234.39 229.94,238.62 C 218.14,241.62 205.03,242.4 193.73,237.17 C 185.76,233.6 179.51,226.25 177.91,217.59 C 176.62,210.08 176.83,201.99 180.15,195 C 183.24,188.15 189.55,183.08 196.58,180.66 z"
       id="path49"
       style="opacity:1;fill:#fffffe" />
    <path
       d="M 239.89,196.53 C 248.41,193.59 257.83,192.46 266.64,194.63 C 273.27,196.23 278.7,201.96 279.37,208.83 C 280.09,219.18 278.79,229.62 280.31,239.92 C 275.46,239.91 270.61,239.95 265.76,239.89 C 265.67,237.47 265.54,235.05 265.41,232.63 C 263.19,236.99 258.89,240.36 253.94,240.79 C 248.76,241.23 242.97,240.66 238.85,237.2 C 231.91,231.82 232.67,219.56 240.18,215.02 C 247.56,210.41 256.63,211.2 264.94,211.49 C 264.62,208.32 262.57,205.5 259.4,204.72 C 252.82,203.31 246.1,204.87 239.92,207.17 C 239.85,203.63 239.84,200.08 239.89,196.53 M 250.63,221.73 C 248.46,223.23 248.99,226.08 249.42,228.28 C 251.17,229.19 252.86,230.59 254.97,230.38 C 260.64,230.69 264.86,225.06 264.77,219.73 C 260.07,219.86 254.68,218.72 250.63,221.73 z"
       id="path51"
       style="opacity:1;fill:#fffffe" />
    <path
       d="M 301.67,202.77 C 306.36,193.41 319.21,191.12 327.96,195.82 C 333.34,198.89 335.71,205.3 335.76,211.24 C 335.9,220.8 335.78,230.36 335.81,239.92 C 330.49,239.93 325.18,239.94 319.86,239.88 C 319.88,232.57 319.87,225.27 319.88,217.96 C 319.89,214.69 319.63,211.12 317.46,208.5 C 314.15,205.48 308.5,206.46 305.87,209.88 C 303.98,212.13 303.52,215.18 303.36,218.02 C 303.24,225.39 303.41,232.76 303.29,240.13 C 297.98,240.15 292.68,239.86 287.37,239.91 C 287.41,224.77 287.27,209.64 287.42,194.51 C 292.17,194.53 296.92,194.51 301.67,194.51 C 301.67,197.26 301.67,200.01 301.67,202.77 z"
       id="path53"
       style="opacity:1;fill:#fffffe" />
    <path
       d="M 349.48,199.48 C 358.02,192.49 370.44,192.14 380.47,195.8 C 380.18,199.82 379.63,203.81 379.38,207.83 C 375.2,205.15 369.76,204.39 365.07,206.03 C 356.93,209.01 355.31,221.7 362.44,226.61 C 367.6,230.76 374.73,229.48 380.46,227.35 C 380.59,231.33 380.68,235.31 380.68,239.29 C 370.83,241.57 359.5,242.23 350.84,236.12 C 338.9,228.12 338.29,208.39 349.48,199.48 z"
       id="path55"
       style="opacity:1;fill:#fffffe" />
    <path
       d="M 388.82,203.72 C 392.8,197.2 400.55,193.75 408,193.58 C 414.54,193.16 421.71,194.78 426.2,199.87 C 431.88,205.57 432.56,214.05 432.62,221.66 C 422.18,221.77 411.74,221.74 401.3,221.68 C 401.49,225.55 404.62,228.79 408.28,229.74 C 415.04,231.36 422.11,229.86 428.36,227.07 C 428.34,230.81 428.35,234.54 428.35,238.28 C 420.28,240.96 411.45,241.86 403.11,239.96 C 394.84,238.1 387.58,231.55 385.85,223.11 C 384.77,216.59 385.11,209.4 388.82,203.72 M 403.41,206.49 C 401.74,208.21 401.45,210.67 401.09,212.93 C 405.38,213.2 409.68,213.05 413.98,213.12 C 415.47,212.99 417.24,213.53 418.47,212.37 C 417.99,209.71 417.26,206.75 414.98,205.03 C 411.45,202.81 406.06,202.99 403.41,206.49 z"
       id="path57"
       style="opacity:1;fill:#fffffe" />
    <path
       d="M 458.71,195.77 C 462.54,193.02 467.46,193.53 471.89,193.78 C 471.88,198.15 471.53,202.51 471.42,206.88 C 467.45,206.72 463.03,206.11 459.58,208.56 C 455.88,211.07 454.74,215.8 454.61,220.02 C 454.5,226.66 454.59,233.3 454.57,239.94 C 449.29,240.14 444.01,240.18 438.73,239.96 C 438.75,224.82 438.77,209.69 438.71,194.55 C 443.53,194.5 448.36,194.51 453.19,194.52 C 453.15,197.31 453.21,200.1 453.62,202.87 C 454.56,200.07 456.11,197.34 458.71,195.77 z"
       id="path59"
       style="opacity:1;fill:#fffffe" />
    <path
       d="M 27.59,228.6 C 30.62,224.34 35.93,222.36 41.02,222.29 C 46.72,222.25 52.43,222.2 58.13,222.42 C 56.29,225.32 54.47,228.23 52.55,231.08 C 54.84,234.05 56.96,237.15 58.99,240.31 C 53.58,242.5 48.2,240.02 43,238.58 C 40.72,237.66 38.81,241.72 41.06,242.91 C 49.97,250.18 59.31,256.94 68.05,264.42 C 63.97,267.84 59.63,270.94 55.51,274.32 C 46.68,267.55 37.97,260.62 29.18,253.79 C 21.73,247.69 22.25,235.9 27.59,228.6 z"
       id="path61"
       style="opacity:1;fill:#fffffe" />
    <path
       d="M 85.98,222.33 C 94.28,222.57 103.13,220.7 110.99,224.1 C 121.4,229.67 123.78,246.71 114.11,254.11 C 96.56,267.93 78.93,281.63 61.41,295.48 C 58.55,297.59 55.83,300.7 51.96,300.57 C 47.17,300.69 43.14,295.66 44.31,290.99 C 44.45,288.45 46.86,287.12 48.53,285.58 C 66.57,271.21 84.79,257.07 102.82,242.69 C 104.76,241.64 102.93,239.52 102.48,238.12 C 96.74,239.1 91.13,242.77 85.23,240.24 C 87.33,237.16 89.39,234.06 91.66,231.11 C 89.92,228.08 88.08,225.12 85.98,222.33 z"
       id="path63"
       style="opacity:1;fill:#fffffe" />
    <path
       d="M 328.5,250.22 C 333.79,250.17 339.09,250.14 344.38,250.23 C 344.41,254.04 344.41,257.86 344.37,261.67 C 339.09,261.67 333.81,261.7 328.54,261.64 C 328.63,257.83 328.64,254.03 328.5,250.22 z"
       id="path65"
       style="opacity:1;fill:#fffffe" />
    <path
       d="M 190.48,254.46 C 199.95,251.54 210.18,252.16 219.68,254.59 C 219.56,258.91 219.31,263.24 218.61,267.51 C 212.06,264.74 204.42,263.66 197.55,265.78 C 194.23,266.87 193.13,271.79 196.38,273.63 C 202.48,277.61 210.44,277.37 216.44,281.65 C 226.91,288.77 224.73,307.26 213.18,312.15 C 202.26,317.06 189.82,315.52 178.47,313.09 C 178.31,308.45 179.08,303.85 179.54,299.25 C 187.43,302.77 197,305.12 205.18,301.18 C 206.52,298.56 206.84,294.96 204.07,293.12 C 197.41,288.84 188.58,288.96 182.52,283.54 C 177.82,279.62 176.86,272.86 177.93,267.16 C 179.06,260.85 184.61,256.28 190.48,254.46 z"
       id="path67"
       style="opacity:1;fill:#fffffe" />
    <path
       d="M 408.68,258.84 C 413.86,257.23 419.03,255.54 424.26,254.06 C 424.35,258.98 424.36,263.9 424.23,268.83 C 427.93,268.83 431.64,268.83 435.35,268.82 C 435.35,272.59 435.35,276.36 435.33,280.13 C 431.66,280.16 427.98,280.16 424.32,280.19 C 424.38,286.38 424.16,292.58 424.44,298.78 C 424.47,300.77 425.27,302.84 426.93,304.04 C 429.63,305.05 432.57,304.43 435.36,304.28 C 435.51,307.68 435.66,311.08 435.86,314.47 C 428.96,315.39 421.4,316.45 414.96,313.14 C 410.39,311.06 408.82,305.63 408.61,301.01 C 408.46,294.06 408.51,287.1 408.58,280.15 C 405.61,280.18 402.66,280.19 399.7,280.18 C 399.6,276.4 399.64,272.62 399.77,268.84 C 402.74,268.86 405.72,268.85 408.7,268.79 C 408.75,265.47 408.73,262.15 408.68,258.84 z"
       id="path69"
       style="opacity:1;fill:#fffffe" />
    <path
       d="M 500.09,267.91 C 505.89,261.06 518.15,261.47 523.23,268.98 C 528.37,275.5 526.39,285.77 519.59,290.37 C 514.34,293.44 507.26,293.71 502.35,289.82 C 495.34,285.06 494.3,274.03 500.09,267.91 M 507.23,267.23 C 500.93,269.91 498.69,278.82 502.56,284.36 C 504.93,288.76 510.87,290.47 515.32,288.4 C 520.06,286.49 522.33,280.9 521.56,276.05 C 521.4,271.64 517.94,268.37 514.22,266.55 C 511.88,266.52 509.4,266.14 507.23,267.23 z"
       id="path71"
       style="opacity:1;fill:#fffffe" />
    <path
       d="M 355.25,277.14 C 360.08,270.12 369.13,267.48 377.3,267.87 C 383.57,268.33 390.28,270.81 393.83,276.31 C 397.82,282.07 398.61,289.38 398.3,296.21 C 387.9,296.21 377.5,296.16 367.1,296.18 C 367.66,299.6 369.81,302.79 373.27,303.77 C 380.25,305.88 387.63,304.15 394.29,301.73 C 394.21,305.27 394.19,308.82 394.27,312.36 C 386.25,315.58 377.17,316.27 368.76,314.28 C 360.34,312.28 352.94,305.33 351.55,296.62 C 350.77,290 351.05,282.66 355.25,277.14 M 368.97,280.99 C 367.59,282.83 367.37,285.2 367.03,287.41 C 372.79,287.26 378.55,287.36 384.31,287.33 C 383.82,285.1 383.7,282.63 382.18,280.8 C 378.97,276.9 372.1,277.08 368.97,280.99 z"
       id="path73"
       style="opacity:1;fill:#fffffe" />
    <path
       d="M 248.31,268.17 C 256.43,267.25 265.46,268.74 271.71,274.36 C 282,283.24 281.47,301.55 270.66,309.81 C 264.33,314.66 255.95,315.98 248.18,315.13 C 241.85,314.31 235.53,311.66 231.37,306.67 C 225.97,300.64 225.33,291.7 227.24,284.16 C 229.77,274.85 239.06,268.99 248.31,268.17 M 245.54,281.62 C 241.99,287.1 241.34,294.57 244.77,300.26 C 248.01,305.49 256.91,305.72 260.24,300.48 C 263.45,295.67 263.34,289.1 261.01,283.96 C 258.35,278.19 250.01,277.71 245.54,281.62 z"
       id="path75"
       style="opacity:1;fill:#fffffe" />
    <path
       d="M 291.14,273.13 C 298.84,267.72 309.05,266.7 318.01,269.13 C 319.12,269.58 320.76,269.6 321.24,270.93 C 321.04,274.59 320.43,278.21 320.25,281.88 C 315.49,279.69 309.79,278.47 304.87,280.84 C 297.89,284.4 296.57,295.37 302.56,300.46 C 307.73,304.97 315.43,304.31 321.25,301.48 C 321.49,305.46 321.54,309.45 321.6,313.44 C 311.54,316.32 299.68,316.53 290.99,309.94 C 279.37,301.41 279.51,281.59 291.14,273.13 z"
       id="path77"
       style="opacity:1;fill:#fffffe" />
    <path
       d="M 328.54,268.88 C 333.8,268.79 339.07,268.87 344.33,268.8 C 344.46,284 344.45,299.21 344.33,314.41 C 339.06,314.38 333.79,314.44 328.53,314.4 C 328.68,299.23 328.68,284.05 328.54,268.88 z"
       id="path79"
       style="opacity:1;fill:#fffffe" />
    <path
       d="M 439.32,268.82 C 444.96,268.83 450.59,268.88 456.23,268.82 C 459.72,278.59 462.84,288.49 466.01,298.38 C 469.05,289.47 471.75,280.46 474.57,271.49 C 474.98,270.35 475.31,268.43 477.02,268.85 C 481.71,268.76 486.4,268.88 491.09,268.8 C 486.26,282.77 480.3,296.33 475.1,310.17 C 472.08,317.29 469.96,325.55 463.45,330.39 C 457.36,334.68 449.4,333.81 442.48,332.53 C 442.85,328.5 443.3,324.49 443.62,320.46 C 447.44,321.51 452.1,322.3 455.35,319.43 C 456.42,318.01 457.97,316.25 457.33,314.35 C 451.29,299.19 445.24,284.02 439.32,268.82 z"
       id="path81"
       style="opacity:1;fill:#fffffe" />
    <path
       d="M 505.2,269.52 C 509.24,269.5 513.47,269 517.26,270.76 C 517.84,272.63 518.88,274.71 517.75,276.61 C 517.25,278.2 515.29,278.4 514.03,279.14 C 515.52,281.42 516.93,283.76 518.05,286.26 C 517.11,286.18 515.25,286.02 514.31,285.94 C 512.85,283.36 511.4,280.77 509.74,278.31 C 508.26,280.75 508.88,283.71 508.67,286.43 C 507.83,286.27 506.16,285.96 505.33,285.8 C 504.95,280.39 505.23,274.95 505.2,269.52 M 508.54,272.42 C 508.71,273.8 508.92,275.19 509.15,276.57 C 511.05,276.31 512.93,275.95 514.79,275.45 C 514.53,274.57 514.25,273.71 513.96,272.86 C 512.23,272.16 510.34,272.45 508.54,272.42 z"
       id="path83"
       style="opacity:1;fill:#fffffe" />
    <path
       d="M 88.56,279.66 C 93.04,276.81 100.56,279.08 100.73,284.95 C 101.65,289.4 97.92,292.44 94.93,294.99 C 83.99,303.69 73.19,312.58 62.06,321.05 C 57.69,324.78 48.5,322.61 48.74,315.99 C 48.17,310.99 52.82,308.06 56.07,305.19 C 66.96,296.76 77.39,287.69 88.56,279.66 z"
       id="path85"
       style="opacity:1;fill:#fffffe" />
    <path
       d="M 77.41,314.37 C 80.78,311.81 84.4,308.57 88.97,309.2 C 91.27,309.15 92.89,310.92 94.6,312.18 C 95.4,315.04 96.03,318.46 94,320.98 C 90.13,325.51 85.07,328.77 80.44,332.45 C 75.65,336.03 70.98,339.78 66.12,343.27 C 63.28,345.38 59.32,345.07 56.18,343.86 C 52.39,341.01 51.42,334.59 55.47,331.49 C 62.57,325.52 70.11,320.08 77.41,314.37 z"
       id="path87"
       style="opacity:1;fill:#fffffe" />
    <path
       d="M 63.9,350.04 C 69.58,346.34 74.85,342.09 80.3,338.07 C 80.4,341.85 80.37,345.63 80.42,349.41 C 86.5,353.96 86.35,364.74 79.29,368.24 C 75.17,369.39 70.12,369.22 66.85,366.12 C 61.91,362.3 64.48,355.35 63.9,350.04 z"
       id="path89"
       style="opacity:1;fill:#fffffe" />
  </g>
</svg>
